<svg xmlns="http://www.w3.org/2000/svg" version="1.1" xmlns:xlink="http://www.w3.org/1999/xlink" xmlns:svgjs="http://svgjs.com/svgjs" width="256" height="256"><svg xmlns="http://www.w3.org/2000/svg" width="256" height="256" viewBox="0 0 100 100"><rect width="100" height="100" rx="20" fill="#f0f0f4"></rect><path fill="#000000" d="M50.23 26.28L50.23 26.28L50.23 27.62Q48.89 28.09 47.29 29.73Q45.68 31.37 44.41 34.86L44.41 34.86L29.73 73.92Q29.33 73.92 28.89 73.89Q28.46 73.85 27.99 73.85L27.99 73.85Q27.52 73.85 27.09 73.89Q26.65 73.92 26.25 73.92L26.25 73.92L9.43 31.91Q8.43 29.43 7.25 28.56Q6.08 27.69 5.08 27.62L5.08 27.62L5.08 26.28Q6.82 26.35 9.33 26.42Q11.84 26.48 14.26 26.48L14.26 26.48Q17.20 26.48 19.78 26.42Q22.36 26.35 23.90 26.28L23.90 26.28L23.90 27.62Q20.62 27.76 19.62 28.76Q18.61 29.77 19.95 33.25L19.95 33.25L32.28 64.94L31.01 66.48L41.06 39.68Q42.73 35.19 42.73 32.58Q42.73 29.97 41.26 28.83Q39.78 27.69 37.04 27.62L37.04 27.62L37.04 26.28Q39.25 26.35 41.22 26.42Q43.20 26.48 45.14 26.48L45.14 26.48Q46.75 26.48 47.99 26.42Q49.23 26.35 50.23 26.28ZM74.62 25.34L74.62 25.34Q79.11 25.34 81.93 26.65Q84.74 27.96 87.08 29.70L87.08 29.70Q87.89 30.37 88.42 30.37L88.42 30.37Q89.70 30.37 90.10 26.28L90.10 26.28L91.64 26.28Q91.51 28.83 91.44 32.51Q91.37 36.20 91.37 42.23L91.37 42.23L89.83 42.23Q89.36 38.61 88.49 35.73Q87.62 32.85 85.34 30.84L85.34 30.84Q83.60 28.96 80.95 27.92Q78.31 26.88 75.63 26.88L75.63 26.88Q72.08 26.88 69.43 28.73Q66.78 30.57 65.01 33.75Q63.23 36.94 62.36 41.12Q61.49 45.31 61.49 50.07L61.49 50.07Q61.49 62.13 65.01 67.72Q68.53 73.32 75.36 73.32L75.36 73.32Q77.24 73.32 78.61 72.81Q79.98 72.31 80.85 71.78L80.85 71.78Q81.93 71.04 82.26 70.23Q82.60 69.43 82.60 68.22L82.60 68.22L82.60 61.66Q82.60 58.71 82.06 57.27Q81.52 55.83 80.08 55.29Q78.64 54.76 75.83 54.69L75.83 54.69L75.83 53.35Q77.17 53.42 79.01 53.45Q80.85 53.48 82.90 53.52Q84.94 53.55 86.62 53.55L86.62 53.55Q89.23 53.55 91.37 53.48Q93.52 53.42 94.92 53.35L94.92 53.35L94.92 54.69Q92.91 54.82 92.34 55.76Q91.77 56.70 91.77 60.45L91.77 60.45L91.77 73.72L90.43 73.72Q90.37 72.58 89.90 71.24Q89.43 69.90 88.49 69.90L88.49 69.90Q88.02 69.90 87.42 70.13Q86.82 70.37 85.34 71.17L85.34 71.17Q83.00 72.71 80.35 73.68Q77.70 74.66 74.56 74.66L74.56 74.66Q63.30 74.66 57.30 68.29Q51.31 61.93 51.31 50.67L51.31 50.67Q51.31 42.97 54.32 37.27Q57.34 31.58 62.60 28.46Q67.86 25.34 74.62 25.34Z"></path></svg><style>@media (prefers-color-scheme: light) { :root { filter: none; } }
</style></svg>